<svg xmlns="http://www.w3.org/2000/svg" width="35" height="42" fill="none"><path fill="#333" d="M35 30.45c-.2406.6781-.4813 1.3125-.7219 1.925-.6344 1.4438-1.3781 2.7781-2.2312 4.025-1.1813 1.6844-2.1438 2.8437-2.8875 3.4781-1.1375 1.05-2.3844 1.5969-3.6969 1.6188-.9406 0-2.0781-.2625-3.4125-.8094-1.3344-.5469-2.5594-.8094-3.675-.8094-1.1813 0-2.4281.2625-3.7844.8094-1.3562.5469-2.4281.8312-3.2593.8531-1.2688.0438-2.51567-.5031-3.78442-1.6625-.80938-.7-1.81563-1.9031-3.01875-3.6094-1.29063-1.8156-2.3625-3.9156-3.19375-6.3218C.4375 27.3437 0 24.8281 0 22.4c0-2.7781.6125-5.1844 1.81563-7.1969C2.75625 13.5844 4.025 12.3156 5.6 11.375c1.575-.9406 3.28125-1.42188 5.1188-1.44375 1.0062 0 2.3187.30625 3.9593.91875 1.6407.6125 2.6906.9187 3.15.9187.35 0 1.5094-.3718 3.4781-1.0937 1.8594-.67813 3.4344-.94062 4.725-.83125 3.5.28435 6.125 1.66255 7.875 4.13435-3.1281 1.9032-4.6812 4.55-4.6375 7.9625.0219 2.6469.9844 4.8563 2.8875 6.6063.8313.8312 1.7719 1.4437 2.8438 1.9031ZM26.2062 0c.0219.284375.0438.546873.0438.831248 0 2.078122-.7656 4.025002-2.275 5.818752-1.8375 2.14375-4.0469 3.3687-6.4312 3.17187-.0219-.24062-.0438-.50312-.0438-.7875 0-1.99062.875-4.13437 2.4062-5.88437.7657-.875 1.7501-1.61875 2.9313-2.209376C24.0406.371874 25.1562.04375 26.2062 0Z"/></svg>